<svg width="121" height="36" viewBox="0 0 121 36" fill="none" xmlns="http://www.w3.org/2000/svg">
    <g id="Layer_1" opacity="0.85" clip-path="url(#clip0_1011_927)">
        <path id="Vector"
            d="M120.316 23.2332C120.276 23.4395 120.249 23.6496 120.193 23.8518C119.893 24.9308 119.155 25.6352 118.145 26.096C117.372 26.4483 116.55 26.5813 115.703 26.6178C114.489 26.6705 113.3 26.5585 112.15 26.1576C111.684 25.9954 111.243 25.7871 110.851 25.484C110.24 25.0111 110.293 23.9451 110.952 23.4871C111.22 23.3007 111.516 23.2883 111.808 23.3941C112.048 23.4809 112.274 23.6066 112.502 23.7237C113.703 24.3422 114.971 24.4969 116.292 24.2272C116.508 24.1831 116.727 24.075 116.905 23.9441C117.39 23.5862 117.362 22.9611 116.86 22.6312C116.457 22.3663 115.988 22.2685 115.525 22.1693C114.648 21.9816 113.768 21.8073 112.932 21.4791C112.699 21.3875 112.469 21.2831 112.245 21.1705C111.067 20.5778 110.606 19.5969 110.684 18.3477C110.771 16.9714 111.586 16.0776 112.773 15.456C113.573 15.0365 114.442 14.8557 115.346 14.8357C116.484 14.8105 117.6 14.9287 118.639 15.4239C118.963 15.5789 119.272 15.7732 119.569 15.976C120.252 16.4417 120.154 17.5156 119.55 17.9685C119.231 18.2079 118.876 18.1848 118.534 18.0277C118.248 17.8965 117.981 17.725 117.699 17.5852C116.755 17.1171 115.76 16.9717 114.729 17.219C114.473 17.2803 114.214 17.4284 114.015 17.601C113.54 18.0139 113.638 18.6645 114.195 18.9614C114.711 19.2366 115.279 19.362 115.847 19.4818C116.708 19.6637 117.566 19.8597 118.36 20.244C118.694 20.4059 119.018 20.5998 119.315 20.8192C119.911 21.2583 120.194 21.8759 120.281 22.5881C120.288 22.6432 120.304 22.697 120.316 22.7514V23.2332Z"
            fill="white" />
        <path id="Vector_2"
            d="M31.5828 1.62359C29.1381 7.32917 26.6983 13.0234 24.254 18.7283C23.0239 18.3625 21.8731 18.5444 20.8087 19.2039C19.7323 19.8711 19.1763 20.8647 19.0236 22.0936H0C0.325422 14.8388 3.29617 8.90212 9.23415 4.50049C16.1551 -0.630263 24.8512 -1.05665 31.5828 1.62359Z"
            fill="white" />
        <path id="Vector_3"
            d="M30.7655 5.30176C40.0384 9.24807 44.5876 19.8096 40.9579 29.0743C36.2596 27.2228 31.5616 25.3712 26.8512 23.5144C27.0593 22.6331 27.0423 21.7703 26.6785 20.9344C26.3143 20.0975 25.7008 19.4758 24.8931 19.0033C26.8495 14.4387 28.8055 9.87525 30.7655 5.30176Z"
            fill="white" />
        <path id="Vector_4"
            d="M9.70254 36.0002C9.17369 35.4233 8.63496 34.8787 8.14559 34.295C6.1913 31.9629 4.8815 29.3219 4.22925 26.3748C3.99091 25.2975 3.8587 24.207 3.82027 23.1046C3.81357 22.9151 3.88232 22.891 4.04732 22.8921C5.05744 22.8979 6.06755 22.8952 7.07766 22.8952C8.96884 22.8952 10.8597 22.8958 12.7509 22.8952C14.7771 22.8941 16.8029 22.8917 18.8292 22.8896C18.899 22.8896 18.9691 22.8896 19.0358 22.8896C19.2614 23.7629 19.6816 24.5711 20.2962 25.3143C16.78 28.8615 13.2624 32.4096 9.70254 36.0005V36.0002Z"
            fill="white" />
        <path id="Vector_5"
            d="M98.4629 21.5099C98.7009 21.0732 98.9234 20.6654 99.1452 20.2573C99.942 18.7907 100.737 17.3232 101.537 15.8587C101.628 15.6931 101.738 15.5333 101.863 15.391C102.271 14.9268 102.929 14.7711 103.513 14.9853C104.05 15.182 104.39 15.6945 104.39 16.313C104.391 19.3115 104.391 22.3103 104.39 25.3088C104.39 26.0803 103.875 26.5852 103.079 26.599C102.293 26.6124 101.716 26.0965 101.709 25.3364C101.696 23.8058 101.702 22.2749 101.7 20.7439C101.7 20.6826 101.7 20.6217 101.665 20.5476C101.635 20.5986 101.604 20.6489 101.575 20.7005C100.995 21.7417 100.418 22.7842 99.8334 23.8227C99.7209 24.0224 99.5957 24.2201 99.4477 24.3954C98.929 25.0085 97.9443 25.024 97.4518 24.3934C97.1309 23.9821 96.8869 23.5116 96.6246 23.0591C96.1829 22.2966 95.7538 21.5271 95.3187 20.7611C95.2962 20.7215 95.2708 20.6837 95.2154 20.5951C95.2098 20.7054 95.2038 20.7673 95.2038 20.8297C95.2031 22.3031 95.2048 23.7768 95.2027 25.2503C95.2017 25.9181 94.8226 26.4213 94.2028 26.5552C93.272 26.7571 92.4738 26.2256 92.4756 25.2317C92.4809 22.2904 92.4774 19.349 92.4774 16.4077C92.4774 15.6869 92.8419 15.1492 93.4617 14.955C94.1105 14.7518 94.7751 14.9733 95.184 15.5677C95.4086 15.8942 95.5853 16.2528 95.776 16.601C96.6518 18.2015 97.5251 19.8037 98.3995 21.4052C98.4132 21.4303 98.4291 21.4541 98.4636 21.5099H98.4629Z"
            fill="white" />
        <path id="Vector_6"
            d="M26.6259 24.1777C30.042 25.5237 33.4911 26.8831 36.9597 28.2498C36.1513 30.0831 35.0121 31.6808 33.5335 33.0798C30.9259 30.4967 28.3207 27.9153 25.7251 25.3439C26.0234 24.9578 26.3174 24.5773 26.6259 24.1777Z"
            fill="white" />
        <path id="Vector_7"
            d="M87.2544 20.7212V16.4053C87.2544 15.4124 87.8937 14.8272 88.9094 14.891C89.8254 14.9481 90.356 15.5013 90.356 16.3988C90.356 19.2991 90.356 22.1991 90.356 25.0994C90.356 25.7028 90.142 26.2081 89.5532 26.4557C88.9235 26.7202 88.2878 26.6975 87.7272 26.2601C87.3828 25.9915 87.2566 25.6116 87.2555 25.1921C87.2527 23.7018 87.2544 22.2115 87.2544 20.7216V20.7212Z"
            fill="white" />
        <path id="Vector_8"
            d="M106.164 20.7562C106.164 19.3058 106.164 17.8555 106.164 16.4052C106.164 15.9981 106.254 15.6213 106.552 15.3148C106.896 14.9614 107.334 14.8708 107.808 14.8908C108.72 14.9294 109.254 15.478 109.254 16.3704C109.254 19.2824 109.254 22.1948 109.254 25.1068C109.254 25.7013 109.055 26.2086 108.47 26.4549C107.841 26.7197 107.204 26.6973 106.643 26.2606C106.258 25.961 106.164 25.5305 106.164 25.0727C106.164 23.6338 106.164 22.1948 106.164 20.7562H106.164Z"
            fill="white" />
        <path id="Vector_9"
            d="M61.1899 25.066C61.1899 25.1806 61.1899 25.2471 61.1899 25.3139C61.1899 26.5924 61.1899 27.8709 61.1899 29.1497C61.1899 29.4049 61.1144 29.5106 60.9163 29.5409C60.6416 29.583 60.4882 29.4624 60.4738 29.191C60.4713 29.1452 60.4731 29.0994 60.4731 29.0536C60.4731 25.6997 60.4731 22.3454 60.4731 18.9915C60.4731 18.9398 60.4703 18.8882 60.4745 18.8369C60.4939 18.5992 60.6099 18.4973 60.8514 18.5031C61.0777 18.5086 61.1853 18.6147 61.1888 18.8534C61.1937 19.1858 61.1902 19.5185 61.1902 19.8508C61.1902 19.9128 61.1902 19.9748 61.1902 20.083C61.2375 20.022 61.2593 19.9996 61.2745 19.9738C61.834 19.0153 62.6971 18.5448 63.8077 18.4828C64.7614 18.4298 65.6421 18.6281 66.3797 19.2574C67.0337 19.815 67.3983 20.5369 67.5601 21.3573C67.7783 22.4639 67.7522 23.5619 67.3045 24.6158C66.6882 26.0668 65.396 26.7529 63.8204 26.6603C62.916 26.6072 62.145 26.2869 61.5625 25.5919C61.4374 25.4427 61.3365 25.2743 61.1902 25.0663L61.1899 25.066ZM61.1327 22.539C61.1814 22.9244 61.2036 23.3156 61.284 23.6948C61.5537 24.9619 62.4461 25.8612 63.7548 25.9714C65.0653 26.082 66.1399 25.5361 66.6346 24.3175C67.0485 23.2977 67.0506 22.2462 66.7799 21.194C66.5108 20.1487 65.7232 19.1992 64.2918 19.1193C63.1371 19.0545 62.225 19.464 61.6383 20.4632C61.2625 21.1028 61.1652 21.8099 61.1327 22.539Z"
            fill="white" />
        <path id="Vector_10"
            d="M69.9708 22.6827C70.0237 23.7204 70.2359 24.6682 71.0824 25.3581C71.7128 25.8716 72.468 26.0042 73.2613 25.9829C74.0941 25.9601 74.8556 25.7314 75.5058 25.2028C75.5329 25.1807 75.5618 25.1607 75.5918 25.1432C75.7716 25.0368 75.969 25.0653 76.0797 25.2128C76.1929 25.3629 76.1721 25.5238 76.005 25.6694C75.6221 26.0028 75.1698 26.2153 74.6896 26.3796C73.7401 26.7048 72.7772 26.7364 71.8172 26.4588C70.6777 26.1296 69.9105 25.3832 69.5368 24.2952C69.1165 23.0722 69.1341 21.834 69.632 20.6296C70.2366 19.1672 71.7058 18.3286 73.316 18.4639C74.3194 18.5483 75.131 18.9351 75.6887 19.7731C76.0082 20.2528 76.1813 20.7853 76.2539 21.3484C76.292 21.6432 76.3131 21.9415 76.3184 22.2387C76.3244 22.5711 76.1982 22.6827 75.8629 22.6827C73.9777 22.6827 72.0922 22.6827 70.207 22.6827H69.9708ZM75.6817 22.0483C75.6373 21.7424 75.6133 21.4466 75.5484 21.1593C75.4 20.5008 75.1186 19.9108 74.5341 19.5061C74.0278 19.1559 73.4485 19.0684 72.8442 19.0877C72.0449 19.1128 71.355 19.3749 70.8314 19.9873C70.4524 20.4309 70.2063 20.9389 70.0889 21.5048C70.0522 21.6808 70.0307 21.8599 70.0004 22.0483H75.6813H75.6817Z"
            fill="white" />
        <path id="Vector_11"
            d="M58.7172 22.5612C58.6827 23.2556 58.5825 23.9258 58.3097 24.5651C57.7226 25.94 56.4897 26.6935 54.9215 26.6388C53.362 26.5844 52.2053 25.7467 51.7166 24.2881C51.3415 23.1674 51.333 22.0302 51.6909 20.906C52.2007 19.3031 53.4932 18.4279 55.2113 18.4861C56.8955 18.543 58.132 19.5531 58.5219 21.2218C58.6241 21.6599 58.6541 22.1142 58.7172 22.5612ZM57.9726 22.554C57.9345 22.2072 57.9176 21.8566 57.8541 21.5146C57.6158 20.2271 56.7746 19.229 55.3121 19.1154C54.0538 19.0176 52.9393 19.6365 52.4789 20.7834C52.0459 21.8614 52.0332 22.9732 52.39 24.0684C52.7493 25.1709 53.5232 25.8446 54.7304 25.9658C55.9548 26.0887 57.0203 25.621 57.5784 24.448C57.8637 23.8487 57.9497 23.2105 57.973 22.554H57.9726Z"
            fill="white" />
        <path id="Vector_12"
            d="M79.0769 19.9679C79.5942 19.1196 80.3515 18.6529 81.3242 18.5024C81.9053 18.4125 82.4852 18.437 83.0508 18.5975C84.0436 18.8792 84.5717 19.5681 84.7448 20.53C84.8115 20.8999 84.8333 21.2815 84.8358 21.658C84.8457 23.131 84.84 24.6044 84.8397 26.0778C84.8397 26.1409 84.8379 26.2039 84.8319 26.2666C84.808 26.5232 84.7149 26.6096 84.4695 26.6065C84.2343 26.6034 84.1331 26.5008 84.1194 26.2487C84.1162 26.1915 84.1173 26.134 84.1173 26.0768C84.1173 24.5176 84.1254 22.9581 84.1106 21.399C84.1074 21.0649 84.0513 20.7246 83.9674 20.3998C83.8017 19.7565 83.3755 19.3476 82.7042 19.1985C81.9973 19.0414 81.2988 19.069 80.6378 19.368C79.6802 19.8009 79.2197 20.5793 79.1132 21.5788C79.0949 21.7492 79.0949 21.9221 79.0949 22.0937C79.0935 23.4579 79.0949 24.8225 79.0935 26.1867C79.0935 26.4973 78.987 26.6117 78.717 26.6062C78.5086 26.602 78.4032 26.5097 78.3799 26.309C78.3753 26.2693 78.3774 26.2287 78.3774 26.1888C78.3774 23.7637 78.3774 21.339 78.3774 18.914C78.3774 18.6281 78.4712 18.5135 78.7078 18.5028C78.9461 18.4921 79.0724 18.6033 79.0752 18.8382C79.0794 19.1592 79.0762 19.4802 79.0762 19.8012C79.0762 19.8567 79.0762 19.9125 79.0762 19.9679H79.0769Z"
            fill="white" />
    </g>
    <defs>
        <clipPath id="clip0_1011_927">
            <rect width="120" height="36" fill="white" />
        </clipPath>
    </defs>
</svg>